<?xml version="1.0" encoding="UTF-8" standalone="no"?><!--Created with Inkscape (http://www.inkscape.org/)--><svg viewBox="0 0 264.58333 264.58333" version="1.1" id="svg1" xml:space="preserve" inkscape:version="1.4.2 (ebf0e940d0, 2025-05-08)" sodipodi:docname="favicon.svg" xmlns:inkscape="http://www.inkscape.org/namespaces/inkscape" xmlns:sodipodi="http://sodipodi.sourceforge.net/DTD/sodipodi-0.dtd" xmlns="http://www.w3.org/2000/svg" xmlns:svg="http://www.w3.org/2000/svg"><sodipodi:namedview id="namedview1" pagecolor="#ffffff" bordercolor="#000000" borderopacity="0.25" inkscape:showpageshadow="2" inkscape:pageopacity="0.0" inkscape:pagecheckerboard="0" inkscape:deskcolor="#d1d1d1" inkscape:document-units="px" showguides="false" inkscape:zoom="0.51502924" inkscape:cx="406.77302" inkscape:cy="431.04349" inkscape:window-width="1440" inkscape:window-height="900" inkscape:window-x="0" inkscape:window-y="0" inkscape:window-maximized="1" inkscape:current-layer="svg1"/><defs id="defs1"><inkscape:path-effect effect="spiro" id="path-effect4" is_visible="true" lpeversion="1"/><inkscape:path-effect effect="spiro" id="path-effect3" is_visible="true" lpeversion="1"/><inkscape:path-effect effect="spiro" id="path-effect2" is_visible="true" lpeversion="1"/><inkscape:path-effect effect="spiro" id="path-effect1" is_visible="true" lpeversion="1"/><inkscape:path-effect effect="spiro" id="path-effect1-7" is_visible="true" lpeversion="1"/></defs><circle style="display:inline;opacity:1;fill:#326f35;fill-opacity:1;stroke:none;stroke-width:0.809246;stroke-linejoin:round" id="path1" cx="132.29167" cy="132.29167" r="132.29167" inkscape:label="circle"/><circle style="display:inline;opacity:1;fill:#ffffff;stroke:none;stroke-width:0.692971;stroke-linejoin:round" id="path1-6" cx="132.29167" cy="132.29167" inkscape:label="circle_fill" r="113.28352"/><rect style="display:inline;opacity:1;fill:#326f35;fill-opacity:1;stroke:none;stroke-width:0.544918;stroke-linejoin:round" id="rect2" width="111.87794" height="21.872269" x="60.309666" y="130.28574" ry="5.3416052" rx="0" inkscape:label="pot_top"/><path id="rect3" style="display:inline;opacity:1;fill:#326f35;fill-opacity:1;stroke-width:0.52483;stroke-linejoin:round" inkscape:label="pot_base" d="m 166.23266,158.30306 c 0,0 -11.81413,56.09053 -12.06696,57.08911 -0.25282,0.99858 -2.18268,3.66196 -4.55264,3.66196 H 82.884213 c -2.369944,0 -4.299809,-2.66338 -4.552635,-3.66196 -0.252826,-0.99858 -12.066955,-57.08911 -12.066955,-57.08911 z" sodipodi:nodetypes="csssscc"/><path style="display:inline;opacity:1;fill:#326f35;fill-opacity:1;stroke-width:12.0915;stroke-linejoin:round;paint-order:stroke markers fill" d="m 106.18661,149.52996 c 0.0532,-1.30087 0.084,-2.60266 0.0924,-3.90459 0.0111,-1.71763 -0.0169,-3.43537 -0.0693,-5.15223 -0.0645,-2.11443 -0.16633,-4.22988 -0.41587,-6.33053 -0.26352,-2.21833 -0.69134,-4.41531 -1.22452,-6.58468 -0.6783,-2.75984 -1.5276,-5.47765 -2.54141,-8.13265 -0.37425,-1.11536 -0.91339,-2.17524 -1.59446,-3.13452 -0.24511,-0.34523 -0.508471,-0.67749 -0.788627,-0.99494 -0.09941,-0.10757 -0.210437,-0.20439 -0.330531,-0.28824 -0.06269,-0.0438 -0.127847,-0.084 -0.195053,-0.12048 l -0.200792,-0.0258 c -0.128104,-0.004 -0.25634,-0.003 -0.384371,0.003 -0.281974,0.0124 -0.562399,0.0473 -0.843325,0.0746 -0.375393,0.0365 -0.752094,0.0594 -1.129128,0.0691 -1.513044,0.0391 -3.025893,-0.13435 -4.512458,-0.41887 -1.773947,-0.33953 -3.517067,-0.83757 -5.206315,-1.47679 -4.420406,-1.67271 -8.467248,-4.3246 -11.765415,-7.70987 -2.437732,-2.48787 -4.551732,-5.29258 -6.271976,-8.32124 -1.115874,-1.964607 -2.065378,-4.020275 -2.918643,-6.112354 -1.538632,-3.772499 -2.766466,-7.666464 -3.810024,-11.604754 -0.401078,-1.513629 -0.775521,-3.036073 -1.038354,-4.579723 -0.08832,-0.518739 -0.163999,-1.039631 -0.226934,-1.562058 v -0.290642 l 0.0472,-0.17389 c 0.0258,-0.04214 0.05402,-0.0828 0.08446,-0.121724 0.04157,-0.05314 0.0873,-0.103025 0.136628,-0.149048 0.07565,-0.06169 0.161685,-0.110608 0.253381,-0.144078 0.128032,-0.04673 0.267057,-0.06304 0.402428,-0.0472 l 0.396479,0.0075 c 0.828058,-0.0093 1.656091,-0.02086 2.484088,-0.03456 2.315435,-0.03832 4.632063,-0.0937 6.946389,-0.01244 2.703866,0.09494 5.401344,0.376629 8.065558,0.847656 2.724149,0.481623 5.413197,1.161167 8.03987,2.029233 3.226907,1.066432 6.359643,2.41764 9.349883,4.032779 2.387785,1.443924 4.573292,3.221817 6.472992,5.265729 1.41984,1.527627 2.68467,3.210214 3.64748,5.060239 0.86269,1.657642 1.47736,3.439859 1.87512,5.265729 0.44571,2.045966 0.62054,4.149436 0.53941,6.241816 -0.0695,1.79123 -0.3259,3.57418 -0.7449,5.3171 -0.22951,0.95467 -0.50771,1.89763 -0.83316,2.82399 -0.24777,-0.32776 -0.49301,-0.65743 -0.73569,-0.98898 -0.36398,-0.49728 -0.72219,-0.99875 -1.0816,-1.49935 -0.97988,-1.3648 -1.96886,-2.72327 -2.98775,-4.0592 -1.2489,-1.63751 -2.54357,-3.242047 -3.935572,-4.75978 C 97.12828,95.537086 94.80365,93.444853 92.331489,91.548662 90.642242,90.25298 88.8839,89.048278 87.077186,87.922164 86.097874,87.311765 85.103103,86.723739 84.06884,86.21194 c -1.046724,-0.517965 -2.132506,-0.956977 -3.245081,-1.312077 1.678849,1.713344 3.388731,3.396279 5.128525,5.047702 1.654569,1.570526 3.336487,3.112845 4.952561,4.722956 2.329598,2.321002 4.519964,4.780742 6.575861,7.347329 2.777684,3.46767 5.307574,7.12681 7.751434,10.83731 1.06511,1.61715 2.11845,3.2521 2.92056,5.01456 0.40167,0.88259 0.73838,1.79298 1.09297,2.69551 0.0575,0.1463 0.11546,0.29248 0.18005,0.43578 0.0382,0.0848 0.0787,0.16848 0.12143,0.25104 l 0.13036,0.20412 c 0.0423,0.0557 0.0931,0.10495 0.15018,0.14541 0.0877,0.0622 0.1902,0.10341 0.29655,0.11927 0.0867,-0.0118 0.17118,-0.0405 0.24722,-0.0839 0.0867,-0.0495 0.16235,-0.11811 0.22,-0.19958 l 0.18597,-0.31526 c 0.10352,-0.20808 0.2011,-0.41913 0.29258,-0.63278 0.29259,-0.68339 0.52203,-1.39171 0.77347,-2.09129 0.72535,-2.01815 1.63461,-3.96548 2.60044,-5.88023 1.00932,-2.00096 2.08192,-3.97 3.21568,-5.90317 l 6.1828,-9.165458 c 1.37431,-1.887151 2.82043,-3.722011 4.33417,-5.499275 1.93463,-2.271428 3.97857,-4.44754 6.05852,-6.586701 1.60058,-1.646142 3.2233,-3.271282 4.89342,-4.846818 1.46842,-1.385251 2.97323,-2.731912 4.51238,-4.038126 l 2.85901,-2.682491 c -0.94237,0.337347 -1.86896,0.718743 -2.77575,1.142526 -0.90845,0.424559 -1.79701,0.89166 -2.66181,1.399259 -1.69489,0.955089 -3.32892,2.018156 -4.8889,3.180617 -2.11763,1.578011 -4.0958,3.336671 -5.99007,5.176843 -1.73713,1.687519 -3.40591,3.445385 -5.00089,5.267844 -1.57444,1.712327 -3.03786,3.526722 -4.37801,5.428014 -0.98625,1.399199 -1.90873,2.849193 -3.02545,4.146648 -0.22589,0.262455 -0.45945,0.518318 -0.70028,0.767138 l -0.66279,-1.647214 c -0.50036,-1.316252 -0.8753,-2.680148 -1.1181,-4.067206 -0.24726,-1.41259 -0.35744,-2.849142 -0.32849,-4.282917 -0.1232,-0.987909 -0.15505,-1.987192 -0.095,-2.980941 0.1674,-2.770325 1.04952,-5.466894 2.32379,-7.932446 1.44091,-2.787964 3.39187,-5.314236 5.74414,-7.391678 1.90645,-1.683709 4.06295,-3.065594 6.30129,-4.273603 6.53777,-3.528371 13.85313,-5.606589 21.26946,-6.042432 2.11268,-0.06301 4.2266,-0.08472 6.34013,-0.06514 2.15818,0.02 4.31631,0.08308 6.47041,0.217128 0.34947,0.02175 0.69882,0.04536 1.04803,0.07084 l 0.29823,0.09289 0.21511,0.195746 0.11196,0.205981 c 0.0101,0.121547 0.0135,0.243649 0.0102,0.36557 -0.005,0.195394 -0.0278,0.390318 -0.0673,0.58176 l -0.39088,1.939055 c -0.20854,1.242067 -0.44276,2.47982 -0.70248,3.712202 -0.51451,2.441435 -1.12934,4.862607 -1.8771,7.242982 -0.80859,2.573999 -1.7721,5.098505 -2.8588,7.567993 -0.98371,2.235461 -2.07222,4.432834 -3.41845,6.470634 -1.23013,1.862045 -2.66788,3.5793 -4.18149,5.21924 -1.05964,1.148078 -2.16003,2.26225 -3.35741,3.265839 -1.76589,1.480077 -3.73089,2.709257 -5.76863,3.784717 -2.57363,1.35828 -5.285,2.48194 -8.11882,3.14375 -1.74121,0.40664 -3.52344,0.63743 -5.3108,0.68771 l -2.88253,-0.052 -0.26158,-0.008 -0.11926,0.0199 -0.10932,0.0795 c -0.054,0.0462 -0.10601,0.0949 -0.15571,0.14576 -0.19383,0.19841 -0.35268,0.43089 -0.4671,0.68356 -0.28687,0.44559 -0.56618,0.89605 -0.83775,1.35113 -0.96107,1.61047 -1.82496,3.27821 -2.60621,4.98318 -0.83106,1.81367 -1.5689,3.67005 -2.20966,5.55936 -0.74398,2.35089 -1.40159,4.7291 -1.97106,7.12824 -0.6092,2.56651 -1.11798,5.15985 -1.41896,7.78044 -0.32143,2.79857 -0.40494,5.61879 -0.44955,8.43541 -0.0395,2.49442 -0.0487,4.98931 -0.0277,7.48395 l -9.30027,0.0595 0.0484,-0.50479 z" id="path1-9" inkscape:path-effect="#path-effect1-7" inkscape:original-d="m 106.18661,149.52996 c 0.0161,-0.16826 0.0539,-2.61076 0.0924,-3.90459 0.0385,-1.29384 -0.0385,-3.41942 -0.0693,-5.15223 -0.0308,-1.73281 -0.27725,-4.22035 -0.41587,-6.33053 -0.13863,-2.11018 -0.81635,-4.38979 -1.22452,-6.58468 -0.40818,-2.19489 -3.39627,-10.84354 -2.54141,-8.13265 -0.878,-2.71089 -1.07069,-2.08969 -1.59446,-3.13452 -0.523768,-1.04485 -0.523366,-0.66425 -0.788627,-0.99494 0.265261,0.33355 -0.220353,-0.19121 -0.330531,-0.28824 -0.110175,-0.097 -0.258159,-0.16064 -0.195053,-0.12048 -0.05737,-0.0402 -0.269634,-0.0335 -0.200792,-0.0258 -0.06884,-0.005 -0.256247,0.003 -0.384371,0.003 -0.128125,0 -0.562216,0.0497 -0.843325,0.0746 -0.281107,0.0249 -0.752753,0.0461 -1.129128,0.0691 -0.376378,0.023 -3.008304,-0.27925 -4.512458,-0.41887 -1.504151,-0.13962 -3.470876,-0.98453 -5.206315,-1.47679 -1.735439,-0.49226 -15.687217,-10.27293 -11.765415,-7.70987 -3.921802,-2.54236 -4.181316,-5.554394 -6.271976,-8.32124 -2.090659,-2.766846 -1.945762,-4.042394 -2.918643,-6.112354 -0.972881,-2.069959 -2.558725,-7.764565 -3.810024,-11.604754 -1.251296,-3.840187 -1.40318,-6.11387 -1.038354,-4.579723 0.364828,1.534146 -0.304232,-2.083573 -0.226934,-1.562058 -0.08227,-0.523997 0,-0.385868 0,-0.290642 -0.005,-0.09274 0.06293,-0.231855 0.0472,-0.17389 0.01077,-0.05548 0.05465,-0.08032 0.08446,-0.121724 0.02981,-0.0414 0.182171,-0.1979 0.136628,-0.149048 0.04554,-0.04637 0.168921,-0.09522 0.253381,-0.144078 0.08446,-0.04886 0.535744,-0.06459 0.402428,-0.0472 0.130832,-0.02236 0.525653,0.01159 0.396479,0.0075 0.117737,0.0041 1.652246,-0.02305 2.484088,-0.03456 0.831842,-0.01151 4.630925,-0.0083 6.946389,-0.01244 2.315464,-0.0042 5.377037,0.565105 8.065558,0.847656 2.688519,0.282552 5.359914,1.35282 8.03987,2.029233 2.679957,0.67641 12.457945,5.377037 9.349883,4.032779 3.082382,1.344258 4.323892,3.519048 6.472992,5.265729 2.1491,1.746682 2.41453,3.364929 3.64748,5.060239 1.23295,1.695307 1.25008,3.510486 1.87512,5.265729 0.62504,1.755243 0.37673,4.161211 0.53941,6.241816 0.16269,2.08061 -0.51373,3.54473 -0.7449,5.3171 -0.23118,1.77237 -0.83316,2.82399 -0.83316,2.82399 -0.01,0 -0.5006,-0.67306 -0.73569,-0.98898 -0.23508,-0.31592 -0.7142,-0.98583 -1.0816,-1.49935 -0.36741,-0.51351 -1.98496,-2.69926 -2.98775,-4.0592 -1.00278,-1.35994 -2.63058,-3.180056 -3.935572,-4.75978 -1.304989,-1.579724 -4.601805,-4.203443 -6.902709,-6.284558 -2.300904,-2.081117 -3.516607,-2.40393 -5.254303,-3.626498 -1.737698,-1.222571 -1.991828,-1.14015 -3.008346,-1.710224 -1.016519,-0.570077 -3.245081,-1.312077 -3.245081,-1.312077 1.159425,2.049014 3.402343,3.482092 5.128525,5.047702 1.444792,1.315226 3.301709,3.148637 4.952561,4.722956 1.650854,1.574318 4.383907,4.89822 6.575861,7.347329 2.191954,2.44911 5.167624,7.23712 7.751434,10.83731 2.58381,3.60019 1.94704,3.33079 2.92056,5.01456 0.97353,1.68376 0.72865,1.797 1.09297,2.69551 0.36432,0.8985 0.12003,0.29052 0.18005,0.43578 0.06,0.14526 0.16031,0.33314 0.12143,0.25104 0.0341,0.0773 0.17461,0.27375 0.13036,0.20412 0.0419,0.0696 0.10092,0.0993 0.15018,0.14541 0.0493,0.0461 0.39465,0.15903 0.29655,0.11927 0.0958,0.0398 0.16406,-0.0559 0.24722,-0.0839 0.0832,-0.028 0.29333,-0.26535 0.22,-0.19958 0.0733,-0.0635 0.24873,-0.4211 0.18597,-0.31526 0.065,-0.10584 0.19581,-0.42185 0.29258,-0.63278 0.0968,-0.21093 0.50529,-1.39937 0.77347,-2.09129 0.26818,-0.69191 1.74399,-3.90462 2.60044,-5.88023 0.85646,-1.97561 4.28757,-7.86572 3.21568,-5.90317 1.07189,-1.97809 8.23855,-12.215432 6.1828,-9.165458 2.04022,-3.049974 2.88427,-3.666183 4.33417,-5.499275 1.4499,-1.833092 4.04937,-4.391133 6.05852,-6.586701 2.00915,-2.195566 3.25193,-3.231211 4.89342,-4.846818 1.6415,-1.615604 3.0107,-2.696967 4.51238,-4.038126 -1.67737,1.776801 2.74653,-2.56537 2.85901,-2.682491 -1.16094,0.242123 -1.75274,0.538097 -2.77575,1.142526 -0.55418,0.314928 -3.54236,1.865677 -2.66181,1.399259 -0.86038,0.466418 -3.25254,2.132275 -4.8889,3.180617 -1.63635,1.04834 -4.00524,3.439364 -5.99007,5.176843 -1.98482,1.737479 -6.67972,7.017859 -5.00089,5.267844 -1.67883,1.732219 -2.91867,3.612745 -4.37801,5.428014 -1.45933,1.815272 -2.01696,2.764433 -3.02545,4.146648 -1.00848,1.382218 -0.70028,0.767138 -0.70028,0.767138 0,-0.0195 -0.88371,-2.183289 -0.66279,-1.647214 -0.22092,-0.516583 -0.73797,-2.7124 -1.1181,-4.067206 -0.38012,-1.354807 -0.43478,-5.722194 -0.32849,-4.282917 -0.11893,-1.451924 -0.0972,-1.976667 -0.095,-2.980941 0.002,-1.004276 1.57888,-5.303141 2.32379,-7.932446 0.74492,-2.629308 3.82943,-4.927785 5.74414,-7.391678 1.91471,-2.463893 4.2233,-2.848703 6.30129,-4.273603 2.07798,-1.424903 28.3448,-8.071051 21.26946,-6.042432 7.05363,-2.028619 4.21952,-0.04343 6.34013,-0.06514 2.12062,-0.02172 4.31361,0.144751 6.47041,0.217128 2.15681,0.07238 1.39738,0.09283 1.04803,0.07084 0.34935,0.01709 0.39438,0.122224 0.29823,0.09289 0.0864,0.01955 0.29008,0.262562 0.21511,0.195746 0.075,0.06174 0.14928,0.274641 0.11196,0.205981 0.0373,0.06358 0.0136,0.487429 0.0102,0.36557 -0.003,-0.121857 -0.0929,0.769464 -0.0673,0.58176 -0.0349,0.169053 -0.51807,2.586654 -0.39088,1.939055 -0.12719,0.632698 -0.45838,2.469832 -0.70248,3.712202 -0.2441,1.242369 -1.25116,4.828653 -1.8771,7.242982 -0.62593,2.414328 -1.89569,5.045329 -2.8588,7.567993 -0.9631,2.522662 -2.29931,4.313756 -3.41845,6.470634 -1.11913,2.156878 -2.78766,3.479493 -4.18149,5.21924 -1.39383,1.739746 -2.23827,2.167051 -3.35741,3.265839 -1.11913,1.098788 -3.84575,2.533317 -5.76863,3.784717 -1.92288,1.25139 -5.42272,2.08566 -8.11882,3.14375 -2.69609,1.05809 -7.09124,0.90136 -5.3108,0.68771 -1.78044,0.19742 -3.84337,-0.0617 -2.88253,-0.052 -0.96084,-0.003 -0.34877,-0.0109 -0.26158,-0.008 -0.0872,0.004 -0.15901,0.0232 -0.11926,0.0199 -0.0397,0 -0.14687,0.10491 -0.10932,0.0795 -0.0409,0.0188 -0.10491,0.095 -0.15571,0.14576 -0.0508,0.0508 -0.62281,0.90663 -0.4671,0.68356 -0.15571,0.20869 -0.5585,0.89596 -0.83775,1.35113 -0.27925,0.45516 -1.73748,3.33722 -2.60621,4.98318 -0.86874,1.64596 -2.94621,7.42003 -2.20966,5.55936 -0.73655,1.83802 -1.31404,4.77203 -1.97106,7.12824 -0.65702,2.35621 -0.93226,5.15954 -1.41896,7.78044 -0.4867,2.62091 -0.29872,5.63829 -0.44955,8.43541 -0.15082,2.79711 -0.0277,7.48395 -0.0277,7.48395 l -9.30027,0.0595 c 0,0 0.0323,-0.33653 0.0484,-0.50479 z" sodipodi:nodetypes="csssscscsccssssscsssscccscsccscsscssssscssssssscsssssssccccsccsssccsssccscsscssccsccssscsscccccccsssssssscccccscsscssscccc" transform="matrix(1.0507773,0,0,1.0330888,3.7382012,-23.816297)" inkscape:label="leafs"/><path style="display:inline;opacity:1;fill:#326f35;fill-opacity:1;stroke:#ffffff;stroke-width:12.0915;stroke-linejoin:round;stroke-dasharray:none;stroke-opacity:1;paint-order:stroke markers fill" d="m 149.59465,178.89735 c 0.68776,-2.88397 1.38798,-5.76497 2.10062,-8.6429 0.917,-3.70323 1.85522,-7.40363 2.99318,-11.04503 0.16891,-0.54051 0.34221,-1.07966 0.51986,-1.61736 0.12794,-0.47525 0.33009,-0.93044 0.59689,-1.34402 0.21298,-0.33015 0.46679,-0.63359 0.75091,-0.90495 0.3024,-0.28881 0.63929,-0.54148 1.00122,-0.75091 0.4451,-0.23948 0.92773,-0.40905 1.42481,-0.50061 0.70376,-0.12963 1.429,-0.10249 2.13722,0 0.52138,0.0755 1.03689,0.19145 1.54034,0.34658 1.01839,0.26405 2.02695,0.56598 3.02291,0.90494 1.52694,0.51968 3.02272,1.12583 4.52475,1.71363 0.88417,0.34601 1.77144,0.68599 2.67664,0.97249 0.56619,0.1792 1.13905,0.33736 1.71699,0.47402 0.23296,0.0808 0.50059,0.0551 0.71393,-0.0685 0.0786,-0.0456 0.1496,-0.10335 0.21516,-0.16626 0.25246,-0.24226 0.42616,-0.56533 0.489,-0.90953 l 0.55745,-1.45914 1.44785,-3.8818 c 0.90672,-2.0856 1.72463,-4.20981 2.45076,-6.36494 0.79138,-2.34877 1.47549,-4.73874 2.45077,-7.0173 0.39095,-0.91339 0.8292,-1.81032 1.11865,-2.76076 0.0293,-0.096 0.057,-0.19257 0.0831,-0.28951 0.014,-0.0813 0.017,-0.16443 0.009,-0.24651 -0.0111,-0.1135 -0.0433,-0.22491 -0.0946,-0.32676 l -0.11466,-0.12326 -0.26084,-0.17198 c -0.17226,-0.12979 -0.33697,-0.2696 -0.49302,-0.41849 -0.22171,-0.21154 -0.42592,-0.44141 -0.60986,-0.68651 l -0.54334,-0.90184 c -0.11925,-0.24097 -0.20616,-0.49792 -0.25767,-0.7618 -0.0761,-0.38988 -0.0747,-0.79048 -0.0616,-1.18751 0.0346,-1.05067 0.14905,-2.0987 0.34197,-3.13209 0.5191,-1.6806 1.03859,-3.36109 1.55846,-5.04145 3.93779,-12.72799 7.89765,-25.449144 11.87956,-38.163396 0.17977,-0.780898 0.39369,-1.553932 0.64095,-2.316152 0.51164,-1.577201 1.17645,-3.125547 2.18477,-4.441838 0.57181,-0.746457 1.2499,-1.411377 2.00742,-1.968444 0.82295,-0.49936 1.68377,-0.936291 2.57263,-1.305804 1.20104,-0.499294 2.45615,-0.875904 3.74199,-1.071925 1.3206,-0.201321 2.66825,-0.21103 3.99537,-0.05847 1.71543,0.197198 3.39934,0.666053 4.96984,1.38376 l 3.89791,3.079353 c 1.07324,1.316607 1.90336,2.830746 2.4362,4.443622 0.43379,1.313046 0.67111,2.690812 0.70162,4.073321 0.0831,0.849678 0.0325,1.712312 -0.14953,2.546419 -0.21855,1.001523 -0.62219,1.951548 -1.02123,2.895782 -0.71531,1.69262 -1.4229,3.388494 -2.13327,5.083194 -5.08884,12.140208 -10.3206,24.219978 -15.45238,36.342098 -0.37888,0.89497 -0.75721,1.79016 -1.13499,2.68559 l -0.79374,1.63344 c -0.25549,0.36239 -0.56766,0.68473 -0.92166,0.95171 -0.35397,0.26695 -0.74966,0.47848 -1.16827,0.62451 l -0.9897,0.20219 c -0.39732,-0.001 -0.79465,0.002 -1.19189,0.0106 -0.36552,0.007 -0.73098,0.0188 -1.09611,0.0373 -0.12739,0.006 -0.25637,0.0141 -0.37778,0.0532 -0.10686,0.0344 -0.20584,0.0931 -0.28733,0.17027 -0.38793,0.35703 -0.70603,0.78965 -0.93117,1.26638 -0.11518,0.24388 -0.20622,0.49916 -0.27136,0.76089 l -0.51614,1.54815 c -0.32331,0.94715 -0.64457,1.89499 -0.96377,2.84353 -1.66638,4.95178 -3.27934,9.92935 -5.32136,14.73842 -0.10592,0.24945 -0.21327,0.49922 -0.28794,0.75973 -0.0604,0.21064 -0.0991,0.43371 -0.0562,0.6486 0.0346,0.17371 0.12315,0.33628 0.25025,0.45964 l 0.60994,0.3871 c 0.48384,0.18668 0.96903,0.36988 1.45551,0.54958 3.46571,1.28022 6.99738,2.38312 10.42312,3.76674 0.83892,0.33883 1.67109,0.69435 2.49587,1.06627 l 1.2934,0.87876 1.45487,1.5018 c 0.33606,0.57739 0.56408,1.21743 0.66877,1.87724 0.11111,0.70028 0.083,1.42236 -0.0821,2.1119 -0.27736,0.64544 -0.55503,1.29074 -0.83302,1.93591 -2.10569,4.88699 -4.23168,9.77104 -6.69182,14.48955 -2.80073,5.37176 -6.02789,10.51511 -9.52145,15.46435 -1.82355,2.58338 -3.72784,5.12395 -5.94291,7.38065 -2.33694,2.38086 -4.99636,4.42169 -7.72333,6.34352 -2.2657,1.59675 -4.58496,3.11746 -6.95177,4.56011 -2.03915,1.24293 -4.15063,2.443 -6.47345,2.99755 -1.05251,0.25128 -2.14438,0.36602 -3.22077,0.25511 -0.99932,-0.10297 -1.977,-0.4008 -2.87,-0.861 -1.09538,-0.56449 -2.0609,-1.37161 -2.83811,-2.32788 -0.8766,-1.07856 -1.50941,-2.33288 -2.07277,-3.60345 -1.57206,-3.5455 -2.65598,-7.30209 -3.28455,-11.12921 -0.71019,-4.32407 -0.84072,-8.72653 -0.70156,-13.10632 0.1104,-3.47462 0.38992,-6.94646 0.92478,-10.38144 0.40734,-2.61604 0.96259,-5.20905 1.66221,-7.7625 z" id="path4" inkscape:path-effect="#path-effect4" inkscape:original-d="m 149.59465,178.89735 c 0.55407,-2.5875 1.38797,-5.75035 2.10062,-8.6429 0.71266,-2.89254 1.99546,-7.33894 2.99318,-11.04503 0.99773,-3.7061 0.68673,-2.13206 0.51986,-1.61736 0.14762,-0.5147 0.39151,-0.89601 0.59689,-1.34402 0.20537,-0.448 0.50061,-0.6033 0.75091,-0.90495 0.25031,-0.30165 1.32854,-1.00121 1.00122,-0.75091 0.30807,-0.2503 0.94346,-0.33374 1.42481,-0.50061 0.48136,-0.16687 1.42482,0 2.13722,0 0.71241,0 2.04737,0.4621 1.54034,0.34658 0.48777,0.11552 2.00886,0.60329 3.02291,0.90494 1.01406,0.30165 3.00366,1.136 4.52475,1.71363 1.52108,0.57763 1.80378,0.65801 2.67664,0.97249 0.87286,0.31449 2.28606,0.63203 1.71699,0.47402 0.55929,0.15801 0.47269,-0.0456 0.71393,-0.0685 0.24124,-0.0228 0.14344,-0.11084 0.21516,-0.16626 0.0717,-0.0554 0.652,-1.20945 0.489,-0.90953 0.163,-0.29014 0.74327,-1.95465 0.55745,-1.45914 0.18582,-0.51314 1.93633,-5.16398 1.44785,-3.8818 0.50612,-1.26455 1.63972,-4.22566 2.45076,-6.36494 0.81104,-2.13928 1.63385,-4.68995 2.45077,-7.0173 0.81692,-2.32735 0.74577,-1.84051 1.11865,-2.76076 0.37289,-0.92026 0.11084,-0.38505 0.0831,-0.28951 0.0277,-0.0927 0.006,-0.16338 0.009,-0.24651 0.003,-0.0831 -0.1242,-0.43569 -0.0946,-0.32676 -0.0239,-0.10893 -0.15288,-0.16243 -0.11466,-0.12326 -0.0325,-0.0334 -0.3497,-0.23217 -0.26084,-0.17198 -0.0889,-0.0631 -0.32868,-0.27995 -0.49302,-0.41849 -0.16434,-0.13854 -0.80941,-0.91722 -0.60986,-0.68651 -0.18835,-0.23631 -0.72632,-1.20059 -0.54334,-0.90184 -0.17738,-0.29875 -0.16992,-0.50787 -0.25767,-0.7618 -0.0878,-0.25394 -0.0411,-0.79168 -0.0616,-1.18751 -0.0205,-0.39584 0.45054,-4.17611 0.34197,-3.13209 0.0923,-1.04402 1.03355,-3.38004 1.55846,-5.04145 0.5249,-1.6614 15.83348,-50.90361 11.87956,-38.163396 3.93611,-12.740214 0.42136,-1.5441 0.64095,-2.316152 0.21958,-0.772049 1.46301,-2.974218 2.18477,-4.441838 0.72176,-1.46762 2.67656,-2.637589 2.00742,-1.968444 0.64965,-0.669145 1.69559,-0.870535 2.57263,-1.305804 0.87703,-0.435266 2.52065,-0.721114 3.74199,-1.071925 1.22135,-0.350813 2.65059,-0.03248 3.99537,-0.05847 1.34478,-0.02598 6.61996,1.845014 4.96984,1.38376 1.63062,0.461254 5.20371,4.1123 3.89791,3.079353 1.3058,1.052436 1.62413,2.968911 2.4362,4.443622 0.81206,1.474711 0.9355,5.424598 0.70162,4.073321 0.23388,1.331788 -0.0911,1.70837 -0.14953,2.546419 -0.0585,0.838052 -1.34439,3.878294 -1.02123,2.895782 0.32316,-0.982511 -1.40956,3.388797 -2.13327,5.083194 -0.72372,1.694399 -10.31421,24.247838 -15.45238,36.342098 -5.13817,12.09427 -0.76,1.77936 -1.13499,2.68559 0.38501,-0.90623 -1.05498,2.17792 -0.79374,1.63344 -0.2412,0.54448 -0.60776,0.63447 -0.92166,0.95171 -0.3139,0.31724 -0.77707,0.41457 -1.16827,0.62451 0.3912,-0.20462 -1.31959,0.26605 -0.9897,0.20219 -0.32989,0.0585 -0.79459,0.005 -1.19189,0.0106 -0.39729,0.005 -0.73073,0.0248 -1.09611,0.0373 -0.36537,0.0124 -0.25186,0.0355 -0.37778,0.0532 -0.12593,0.0177 -0.19156,0.11173 -0.28733,0.17027 0.10109,-0.0532 -0.61901,0.84602 -0.93117,1.26638 -0.31216,0.42035 -0.36359,1.01097 -0.27136,0.76089 -0.0976,0.23944 -0.68641,2.06428 -0.51614,1.54815 -0.17027,0.50573 -0.64251,1.89222 -0.96377,2.84353 -0.32126,0.95131 -3.54757,9.82561 -5.32136,14.73842 -1.77378,4.9128 -0.19196,0.50649 -0.28794,0.75973 -0.096,0.25325 -0.0375,0.4324 -0.0562,0.6486 -0.0187,0.2162 0.33196,0.60945 0.25025,0.45964 0.0766,0.1396 0.82785,0.52159 0.60994,0.3871 0.21791,0.14064 0.97034,0.36844 1.45551,0.54958 0.48517,0.18115 6.93735,2.51116 10.42312,3.76674 3.48577,1.25558 3.31643,1.41386 2.49587,1.06627 0.82056,0.32413 1.72454,1.17559 1.2934,0.87876 0.43114,0.2851 1.93591,2.0063 1.45487,1.5018 0.46931,0.5045 0.44193,1.25149 0.66877,1.87724 0.22683,0.62575 -0.10951,2.80805 -0.0821,2.1119 -0.0274,0.67268 -0.55535,1.28278 -0.83302,1.93591 -0.27768,0.65312 -4.46122,9.6597 -6.69182,14.48955 -2.23061,4.82985 -6.36893,10.30957 -9.52145,15.46435 -3.15251,5.15479 -3.94064,4.93107 -5.94291,7.38065 -2.00227,2.44959 -5.14889,4.21839 -7.72333,6.34352 -2.57445,2.12514 -4.63452,3.02944 -6.95177,4.56011 -2.31726,1.53066 -4.31563,1.99837 -6.47345,2.99755 -2.15781,0.99919 -2.14718,0.18071 -3.22077,0.25511 -1.07359,0.0744 -1.91333,-0.574 -2.87,-0.861 -0.95666,-0.287 -1.91333,-1.55192 -2.83811,-2.32788 -0.92477,-0.77596 -1.36059,-2.41293 -2.07277,-3.60345 -0.71219,-1.19051 -2.20033,-7.41947 -3.28455,-11.12921 -1.08423,-3.70973 -0.46771,-8.73755 -0.70156,-13.10632 -0.23385,-4.36878 1.22241,-13.8467 0.92478,-10.38144 -0.29763,3.46526 1.10814,-5.175 1.66221,-7.7625 z" inkscape:label="shovel" transform="matrix(0.95760053,0,0,0.95760053,9.0655024,1.247769)"/><rect style="opacity:1;fill:#ffffff;fill-opacity:1;stroke-width:11.8356;stroke-linejoin:round;paint-order:stroke markers fill" id="rect1" width="4.2640915" height="29.493299" x="220.88391" y="91.652138" ry="2.1320457" transform="rotate(19.023818)" inkscape:label="shovel_fill"/></svg>