<?xml version="1.0" encoding="UTF-8"?><svg xmlns="http://www.w3.org/2000/svg" xmlns:xlink="http://www.w3.org/1999/xlink" width="16" height="16" viewBox="0 0 16 16"><path fill-rule="nonzero" fill="rgb(19.607843%, 43.529412%, 20.784314%)" fill-opacity="1" d="M 16 8 C 16 12.417969 12.417969 16 8 16 C 3.582031 16 0 12.417969 0 8 C 0 3.582031 3.582031 0 8 0 C 12.417969 0 16 3.582031 16 8 Z M 16 8 "/><path fill-rule="nonzero" fill="rgb(100%, 100%, 100%)" fill-opacity="1" d="M 14.851562 8 C 14.851562 11.785156 11.785156 14.851562 8 14.851562 C 4.214844 14.851562 1.148438 11.785156 1.148438 8 C 1.148438 4.214844 4.214844 1.148438 8 1.148438 C 11.785156 1.148438 14.851562 4.214844 14.851562 8 Z M 14.851562 8 "/><path fill-rule="nonzero" fill="rgb(19.607843%, 43.529412%, 20.784314%)" fill-opacity="1" d="M 3.648438 7.878906 L 10.414062 7.878906 L 10.414062 9.203125 L 3.648438 9.203125 Z M 3.648438 7.878906 "/><path fill-rule="nonzero" fill="rgb(19.607843%, 43.529412%, 20.784314%)" fill-opacity="1" d="M 10.050781 9.574219 C 10.050781 9.574219 9.339844 12.964844 9.324219 13.023438 C 9.308594 13.085938 9.191406 13.246094 9.046875 13.246094 L 5.011719 13.246094 C 4.867188 13.246094 4.753906 13.085938 4.738281 13.023438 C 4.722656 12.964844 4.007812 9.574219 4.007812 9.574219 Z M 10.050781 9.574219 "/><path fill-rule="nonzero" fill="rgb(19.607843%, 43.529412%, 20.784314%)" fill-opacity="1" d="M 6.972656 7.902344 C 6.976562 7.820312 6.980469 7.738281 6.980469 7.65625 C 6.980469 7.550781 6.976562 7.441406 6.976562 7.335938 C 6.972656 7.203125 6.964844 7.070312 6.949219 6.941406 C 6.933594 6.800781 6.90625 6.664062 6.871094 6.527344 C 6.828125 6.355469 6.773438 6.1875 6.710938 6.019531 C 6.683594 5.949219 6.652344 5.886719 6.609375 5.824219 C 6.59375 5.804688 6.574219 5.78125 6.558594 5.761719 C 6.550781 5.757812 6.542969 5.75 6.535156 5.746094 C 6.53125 5.742188 6.527344 5.738281 6.523438 5.738281 L 6.511719 5.734375 C 6.503906 5.734375 6.496094 5.734375 6.488281 5.734375 C 6.46875 5.738281 6.453125 5.738281 6.433594 5.742188 C 6.410156 5.742188 6.386719 5.742188 6.363281 5.746094 C 6.265625 5.746094 6.167969 5.734375 6.074219 5.71875 C 5.960938 5.699219 5.851562 5.667969 5.746094 5.625 C 5.464844 5.523438 5.207031 5.355469 4.996094 5.144531 C 4.84375 4.988281 4.707031 4.8125 4.597656 4.625 C 4.527344 4.503906 4.46875 4.375 4.414062 4.242188 C 4.316406 4.007812 4.238281 3.765625 4.171875 3.519531 C 4.144531 3.421875 4.121094 3.328125 4.105469 3.230469 C 4.097656 3.199219 4.09375 3.167969 4.089844 3.132812 L 4.089844 3.117188 L 4.09375 3.105469 C 4.09375 3.101562 4.097656 3.101562 4.097656 3.097656 C 4.101562 3.09375 4.105469 3.089844 4.105469 3.089844 C 4.113281 3.085938 4.117188 3.082031 4.125 3.078125 C 4.132812 3.078125 4.140625 3.074219 4.148438 3.078125 L 4.175781 3.078125 C 4.226562 3.078125 4.28125 3.074219 4.332031 3.074219 C 4.480469 3.070312 4.625 3.070312 4.773438 3.074219 C 4.945312 3.078125 5.117188 3.097656 5.285156 3.125 C 5.457031 3.15625 5.628906 3.199219 5.796875 3.253906 C 6 3.320312 6.199219 3.40625 6.390625 3.503906 C 6.542969 3.597656 6.679688 3.707031 6.800781 3.835938 C 6.890625 3.929688 6.972656 4.035156 7.035156 4.152344 C 7.089844 4.253906 7.128906 4.367188 7.152344 4.480469 C 7.179688 4.605469 7.191406 4.738281 7.1875 4.871094 C 7.183594 4.980469 7.167969 5.09375 7.140625 5.203125 C 7.125 5.261719 7.109375 5.320312 7.085938 5.378906 C 7.070312 5.359375 7.054688 5.335938 7.039062 5.316406 C 7.015625 5.285156 6.996094 5.253906 6.972656 5.222656 C 6.910156 5.136719 6.847656 5.050781 6.78125 4.96875 C 6.703125 4.867188 6.621094 4.765625 6.53125 4.671875 C 6.398438 4.527344 6.25 4.398438 6.09375 4.277344 C 5.984375 4.199219 5.875 4.121094 5.757812 4.050781 C 5.695312 4.015625 5.632812 3.976562 5.566406 3.945312 C 5.5 3.914062 5.433594 3.886719 5.363281 3.863281 C 5.46875 3.972656 5.578125 4.074219 5.6875 4.179688 C 5.792969 4.277344 5.898438 4.375 6.003906 4.472656 C 6.152344 4.621094 6.289062 4.773438 6.421875 4.933594 C 6.597656 5.148438 6.757812 5.378906 6.914062 5.609375 C 6.980469 5.710938 7.046875 5.8125 7.097656 5.921875 C 7.125 5.980469 7.144531 6.035156 7.167969 6.09375 C 7.171875 6.101562 7.175781 6.109375 7.179688 6.117188 C 7.183594 6.125 7.183594 6.128906 7.1875 6.136719 L 7.195312 6.148438 C 7.199219 6.152344 7.203125 6.152344 7.203125 6.15625 C 7.210938 6.160156 7.21875 6.164062 7.222656 6.164062 C 7.230469 6.164062 7.234375 6.160156 7.238281 6.160156 C 7.246094 6.15625 7.25 6.152344 7.253906 6.144531 L 7.265625 6.125 C 7.273438 6.113281 7.277344 6.101562 7.285156 6.085938 C 7.300781 6.042969 7.316406 6 7.332031 5.957031 C 7.378906 5.832031 7.4375 5.707031 7.5 5.589844 C 7.5625 5.464844 7.628906 5.339844 7.703125 5.21875 L 8.09375 4.648438 C 8.183594 4.53125 8.273438 4.414062 8.371094 4.304688 C 8.492188 4.164062 8.625 4.027344 8.753906 3.894531 C 8.859375 3.789062 8.960938 3.6875 9.066406 3.589844 C 9.160156 3.503906 9.253906 3.417969 9.351562 3.335938 L 9.535156 3.171875 C 9.476562 3.191406 9.417969 3.214844 9.359375 3.242188 C 9.300781 3.269531 9.246094 3.296875 9.191406 3.328125 C 9.082031 3.386719 8.976562 3.453125 8.878906 3.527344 C 8.746094 3.625 8.617188 3.734375 8.5 3.851562 C 8.386719 3.957031 8.28125 4.066406 8.179688 4.179688 C 8.082031 4.285156 7.988281 4.398438 7.902344 4.519531 C 7.839844 4.605469 7.78125 4.695312 7.710938 4.777344 C 7.695312 4.792969 7.679688 4.8125 7.664062 4.824219 L 7.625 4.722656 C 7.589844 4.640625 7.566406 4.554688 7.550781 4.46875 C 7.535156 4.382812 7.53125 4.292969 7.53125 4.203125 C 7.523438 4.140625 7.523438 4.078125 7.527344 4.015625 C 7.535156 3.84375 7.59375 3.671875 7.671875 3.519531 C 7.765625 3.34375 7.890625 3.1875 8.039062 3.058594 C 8.160156 2.953125 8.296875 2.867188 8.4375 2.789062 C 8.855469 2.570312 9.320312 2.441406 9.789062 2.414062 C 9.925781 2.410156 10.058594 2.410156 10.191406 2.410156 C 10.332031 2.410156 10.46875 2.414062 10.605469 2.421875 C 10.625 2.425781 10.648438 2.425781 10.671875 2.425781 L 10.691406 2.433594 L 10.703125 2.445312 L 10.710938 2.457031 C 10.710938 2.464844 10.710938 2.472656 10.710938 2.480469 C 10.710938 2.492188 10.710938 2.503906 10.707031 2.515625 L 10.683594 2.636719 C 10.667969 2.714844 10.652344 2.792969 10.636719 2.871094 C 10.605469 3.023438 10.566406 3.175781 10.519531 3.324219 C 10.464844 3.484375 10.40625 3.640625 10.335938 3.796875 C 10.273438 3.933594 10.203125 4.074219 10.121094 4.199219 C 10.042969 4.316406 9.949219 4.421875 9.851562 4.527344 C 9.785156 4.597656 9.714844 4.667969 9.640625 4.730469 C 9.527344 4.824219 9.402344 4.898438 9.273438 4.964844 C 9.109375 5.050781 8.9375 5.121094 8.757812 5.164062 C 8.648438 5.1875 8.535156 5.203125 8.421875 5.207031 L 8.238281 5.203125 L 8.210938 5.203125 L 8.207031 5.207031 C 8.203125 5.210938 8.199219 5.214844 8.195312 5.21875 C 8.183594 5.230469 8.171875 5.246094 8.167969 5.261719 C 8.148438 5.289062 8.128906 5.316406 8.113281 5.34375 C 8.050781 5.445312 7.996094 5.550781 7.949219 5.65625 C 7.894531 5.769531 7.847656 5.886719 7.808594 6.003906 C 7.761719 6.148438 7.71875 6.296875 7.683594 6.449219 C 7.644531 6.609375 7.609375 6.769531 7.589844 6.933594 C 7.570312 7.109375 7.566406 7.285156 7.5625 7.460938 C 7.5625 7.617188 7.558594 7.773438 7.5625 7.929688 L 6.96875 7.933594 Z M 6.972656 7.902344 "/><path fill="none" stroke-width="12.0915" stroke-linecap="butt" stroke-linejoin="round" stroke="rgb(100%, 100%, 100%)" stroke-opacity="1" stroke-miterlimit="4" d="M 149.593471 178.870959 C 150.268027 176.037823 151.010039 173.137231 151.684596 170.236639 C 152.628974 166.52658 153.573353 162.883976 154.720099 159.241372 C 154.85501 158.701727 155.057377 158.162082 155.192288 157.622437 C 155.327199 157.150248 155.529566 156.678058 155.799389 156.273325 C 156.001756 155.936046 156.271578 155.598768 156.541401 155.328946 C 156.878679 155.059123 157.215957 154.789301 157.553235 154.586934 C 158.025424 154.384567 158.497614 154.1822 158.969803 154.114745 C 159.711815 153.979833 160.386371 153.979833 161.128383 154.114745 C 161.668028 154.1822 162.140217 154.249656 162.679862 154.452023 C 163.691697 154.721845 164.703531 154.991668 165.715366 155.328946 C 167.199389 155.868591 168.683413 156.475691 170.234893 157.082792 C 171.111816 157.42007 171.988739 157.757348 172.865662 158.027171 C 173.472763 158.229538 174.012408 158.364449 174.619508 158.49936 C 174.821875 158.566816 175.091698 158.566816 175.294064 158.431905 C 175.36152 158.364449 175.496431 158.364449 175.496431 158.296993 C 175.766254 158.027171 175.968621 157.689893 176.036076 157.352615 L 176.575721 155.868591 L 177.992289 152.02362 C 178.936668 149.932496 179.746136 147.841371 180.488148 145.682791 C 181.297615 143.321845 181.972171 140.893442 182.91655 138.667406 C 183.321284 137.723028 183.726018 136.846105 184.063296 135.901726 C 184.063296 135.766815 184.130751 135.699359 184.130751 135.564448 C 184.130751 135.496992 184.130751 135.429536 184.130751 135.362081 C 184.130751 135.22717 184.063296 135.092258 184.063296 135.024803 L 183.928384 134.889891 L 183.658562 134.687525 C 183.523651 134.620069 183.321284 134.417702 183.186373 134.282791 C 182.984006 134.080424 182.714183 133.878057 182.579272 133.608234 L 182.039627 132.731311 C 181.904716 132.461489 181.83726 132.191666 181.769804 131.921844 C 181.702349 131.584566 181.702349 131.179832 181.702349 130.775098 C 181.702349 129.695808 181.83726 128.683974 182.039627 127.604684 C 182.579272 125.918293 183.051461 124.299358 183.591106 122.612968 C 187.570988 109.863854 191.483415 97.114741 195.463296 84.433084 C 195.665663 83.623616 195.86803 82.881604 196.137853 82.139592 C 196.610042 80.520657 197.284598 78.969178 198.296433 77.687521 C 198.903533 76.945509 199.57809 76.270953 200.320101 75.663852 C 201.129569 75.191663 202.006492 74.786929 202.883415 74.382195 C 204.097616 73.910006 205.311818 73.505272 206.66093 73.302905 C 207.942587 73.100539 209.2917 73.100539 210.640812 73.23545 C 212.327203 73.437817 214.013593 73.910006 215.565073 74.652018 L 219.477499 77.754977 C 220.556789 79.036634 221.366257 80.588113 221.905902 82.139592 C 222.378091 83.488705 222.580458 84.837817 222.647913 86.254386 C 222.715369 87.063853 222.647913 87.940776 222.513002 88.817699 C 222.24318 89.762078 221.838446 90.706457 221.433712 91.650836 C 220.759156 93.404682 220.017144 95.091072 219.342588 96.777463 C 214.21596 108.919476 209.021877 120.994033 203.89525 133.136045 C 203.490516 134.012968 203.085782 134.889891 202.748504 135.766815 L 201.939036 137.453205 C 201.669214 137.790483 201.399391 138.127761 200.994658 138.397584 C 200.65738 138.667406 200.252646 138.869773 199.847912 139.004685 L 198.836078 139.207051 C 198.4988 139.207051 198.094066 139.207051 197.689332 139.207051 C 197.284598 139.207051 196.94732 139.207051 196.610042 139.274507 C 196.475131 139.274507 196.34022 139.274507 196.205308 139.274507 C 196.070397 139.341963 196.002941 139.409418 195.935486 139.476874 C 195.530752 139.814152 195.193474 140.286341 194.991107 140.758531 C 194.856196 140.960898 194.78874 141.23072 194.721285 141.500543 L 194.18164 143.052022 C 193.844361 143.996401 193.574539 144.94078 193.237261 145.885158 C 191.55087 150.876875 189.931935 155.801135 187.908266 160.65794 C 187.773355 160.860307 187.705899 161.13013 187.638444 161.399952 C 187.570988 161.602319 187.503533 161.804686 187.570988 162.074508 C 187.570988 162.20942 187.705899 162.411787 187.840811 162.479242 L 188.447911 162.883976 C 188.920101 163.086343 189.39229 163.28871 189.864479 163.423621 C 193.372172 164.705278 196.879865 165.852023 200.320101 167.201136 C 201.129569 167.538414 202.006492 167.875692 202.81596 168.280426 L 204.097616 169.157349 L 205.514185 170.641373 C 205.851463 171.248473 206.121285 171.855574 206.188741 172.53013 C 206.323652 173.204687 206.323652 173.946698 206.121285 174.621255 C 205.851463 175.295811 205.58164 175.902912 205.311818 176.577468 C 203.220693 181.434273 201.062113 186.358534 198.633711 191.080427 C 195.800575 196.409422 192.562705 201.603505 189.055012 206.527765 C 187.23371 209.091079 185.344953 211.654393 183.118917 213.880429 C 180.825426 216.308831 178.127201 218.3325 175.428976 220.288713 C 173.135484 221.840192 170.841993 223.391672 168.481046 224.80824 C 166.457378 226.089897 164.298797 227.236642 162.005306 227.843743 C 160.926016 228.04611 159.846726 228.181021 158.767436 228.04611 C 157.755602 227.978654 156.811223 227.641376 155.9343 227.236642 C 154.787554 226.629542 153.843176 225.820074 153.033708 224.875696 C 152.156785 223.796406 151.549684 222.514749 151.010039 221.300547 C 149.391104 217.725399 148.311814 213.947884 147.704714 210.170369 C 147.030157 205.853209 146.895246 201.401138 147.030157 197.016522 C 147.097613 193.576285 147.367436 190.068593 147.907081 186.628356 C 148.311814 184.065042 148.918915 181.434273 149.593471 178.870959 Z M 149.593471 178.870959 " transform="matrix(0.0579084, 0, 0, 0.0579084, 0.548213, 0.0754556)"/><path fill-rule="nonzero" fill="rgb(19.607843%, 43.529412%, 20.784314%)" fill-opacity="1" d="M 9.210938 10.433594 C 9.25 10.269531 9.292969 10.101562 9.332031 9.933594 C 9.386719 9.71875 9.441406 9.507812 9.507812 9.296875 C 9.515625 9.265625 9.527344 9.234375 9.535156 9.203125 C 9.542969 9.175781 9.554688 9.148438 9.570312 9.125 C 9.582031 9.105469 9.597656 9.085938 9.613281 9.070312 C 9.632812 9.054688 9.652344 9.039062 9.671875 9.027344 C 9.699219 9.015625 9.726562 9.003906 9.753906 9 C 9.796875 8.992188 9.835938 8.992188 9.878906 9 C 9.910156 9.003906 9.9375 9.007812 9.96875 9.019531 C 10.027344 9.035156 10.085938 9.050781 10.144531 9.070312 C 10.230469 9.101562 10.316406 9.136719 10.40625 9.171875 C 10.457031 9.191406 10.507812 9.210938 10.558594 9.226562 C 10.59375 9.238281 10.625 9.246094 10.660156 9.253906 C 10.671875 9.257812 10.6875 9.257812 10.699219 9.25 C 10.703125 9.246094 10.710938 9.246094 10.710938 9.242188 C 10.726562 9.226562 10.738281 9.207031 10.742188 9.1875 L 10.773438 9.101562 L 10.855469 8.878906 C 10.910156 8.757812 10.957031 8.636719 11 8.511719 C 11.046875 8.375 11.085938 8.234375 11.140625 8.105469 C 11.164062 8.050781 11.1875 8 11.207031 7.945312 C 11.207031 7.9375 11.210938 7.933594 11.210938 7.925781 C 11.210938 7.921875 11.210938 7.917969 11.210938 7.914062 C 11.210938 7.90625 11.207031 7.898438 11.207031 7.894531 L 11.199219 7.886719 L 11.183594 7.875 C 11.175781 7.871094 11.164062 7.859375 11.15625 7.851562 C 11.144531 7.839844 11.128906 7.828125 11.121094 7.8125 L 11.089844 7.761719 C 11.082031 7.746094 11.078125 7.730469 11.074219 7.714844 C 11.070312 7.695312 11.070312 7.671875 11.070312 7.648438 C 11.070312 7.585938 11.078125 7.527344 11.089844 7.464844 C 11.121094 7.367188 11.148438 7.273438 11.179688 7.175781 C 11.410156 6.4375 11.636719 5.699219 11.867188 4.964844 C 11.878906 4.917969 11.890625 4.875 11.90625 4.832031 C 11.933594 4.738281 11.972656 4.648438 12.03125 4.574219 C 12.066406 4.53125 12.105469 4.492188 12.148438 4.457031 C 12.195312 4.429688 12.246094 4.40625 12.296875 4.382812 C 12.367188 4.355469 12.4375 4.332031 12.515625 4.320312 C 12.589844 4.308594 12.667969 4.308594 12.746094 4.316406 C 12.84375 4.328125 12.941406 4.355469 13.03125 4.398438 L 13.257812 4.578125 C 13.320312 4.652344 13.367188 4.742188 13.398438 4.832031 C 13.425781 4.910156 13.4375 4.988281 13.441406 5.070312 C 13.445312 5.117188 13.441406 5.167969 13.433594 5.21875 C 13.417969 5.273438 13.394531 5.328125 13.371094 5.382812 C 13.332031 5.484375 13.289062 5.582031 13.25 5.679688 C 12.953125 6.382812 12.652344 7.082031 12.355469 7.785156 C 12.332031 7.835938 12.308594 7.886719 12.289062 7.9375 L 12.242188 8.035156 C 12.226562 8.054688 12.210938 8.074219 12.1875 8.089844 C 12.167969 8.105469 12.144531 8.117188 12.121094 8.125 L 12.0625 8.136719 C 12.042969 8.136719 12.019531 8.136719 11.996094 8.136719 C 11.972656 8.136719 11.953125 8.136719 11.933594 8.140625 C 11.925781 8.140625 11.917969 8.140625 11.910156 8.140625 C 11.902344 8.144531 11.898438 8.148438 11.894531 8.152344 C 11.871094 8.171875 11.851562 8.199219 11.839844 8.226562 C 11.832031 8.238281 11.828125 8.253906 11.824219 8.269531 L 11.792969 8.359375 C 11.773438 8.414062 11.757812 8.46875 11.738281 8.523438 C 11.640625 8.8125 11.546875 9.097656 11.429688 9.378906 C 11.421875 9.390625 11.417969 9.40625 11.414062 9.421875 C 11.410156 9.433594 11.40625 9.445312 11.410156 9.460938 C 11.410156 9.46875 11.417969 9.480469 11.425781 9.484375 L 11.460938 9.507812 C 11.488281 9.519531 11.515625 9.53125 11.542969 9.539062 C 11.746094 9.613281 11.949219 9.679688 12.148438 9.757812 C 12.195312 9.777344 12.246094 9.796875 12.292969 9.820312 L 12.367188 9.871094 L 12.449219 9.957031 C 12.46875 9.992188 12.484375 10.027344 12.488281 10.066406 C 12.496094 10.105469 12.496094 10.148438 12.484375 10.1875 C 12.46875 10.226562 12.453125 10.261719 12.4375 10.300781 C 12.316406 10.582031 12.191406 10.867188 12.050781 11.140625 C 11.886719 11.449219 11.699219 11.75 11.496094 12.035156 C 11.390625 12.183594 11.28125 12.332031 11.152344 12.460938 C 11.019531 12.601562 10.863281 12.71875 10.707031 12.832031 C 10.574219 12.921875 10.441406 13.011719 10.304688 13.09375 C 10.1875 13.167969 10.0625 13.234375 9.929688 13.269531 C 9.867188 13.28125 9.804688 13.289062 9.742188 13.28125 C 9.683594 13.277344 9.628906 13.257812 9.578125 13.234375 C 9.511719 13.199219 9.457031 13.152344 9.410156 13.097656 C 9.359375 13.035156 9.324219 12.960938 9.292969 12.890625 C 9.199219 12.683594 9.136719 12.464844 9.101562 12.246094 C 9.0625 11.996094 9.054688 11.738281 9.0625 11.484375 C 9.066406 11.285156 9.082031 11.082031 9.113281 10.882812 C 9.136719 10.734375 9.171875 10.582031 9.210938 10.433594 Z M 9.210938 10.433594 "/><path fill-rule="nonzero" fill="rgb(100%, 100%, 100%)" fill-opacity="1" d="M 10.941406 9.636719 C 11.011719 9.660156 11.046875 9.730469 11.023438 9.800781 L 10.527344 11.242188 C 10.503906 11.308594 10.429688 11.34375 10.363281 11.320312 C 10.292969 11.296875 10.257812 11.226562 10.28125 11.15625 L 10.777344 9.714844 C 10.800781 9.648438 10.875 9.613281 10.941406 9.636719 Z M 10.941406 9.636719 "/></svg>